STARTFONT 2.1
FONT -Monotype-Arial Narrow-Regular-R-Normal--14-100-100-100-P-50-iso8859-9
SIZE 10 100 100
FONTBOUNDINGBOX 21 17 -10 -4

STARTPROPERTIES 24
FOUNDRY "Monotype"
FAMILY_NAME "Arial Narrow"
WEIGHT_NAME "Regular"
SLANT "R"
SETWIDTH_NAME "Normal"
ADD_STYLE_NAME ""
PIXEL_SIZE 14
POINT_SIZE 100
RESOLUTION_X 100
RESOLUTION_Y 100
SPACING "P"
AVERAGE_WIDTH 50
CHARSET_REGISTRY "iso8859"
CHARSET_ENCODING "9"
FACE_NAME "Arial Narrow ISO Latin5"
_DEC_DEVICE_FONTNAMES "PS=arialnarrow-lat5"
COPYRIGHT "Copyright (c) 1994 Monotype Typography Ltd."
CAP_HEIGHT 12
X_HEIGHT 8
WEIGHT 10
QUAD_WIDTH 7
DEFAULT_CHAR 160
FONT_DESCENT 4
FONT_ASCENT 13
ENDPROPERTIES

CHARS 191

STARTCHAR space
ENCODING 32
SWIDTH 228 0
DWIDTH 3 0
BBX 0 0 0 0
BITMAP
ENDCHAR

STARTCHAR exclam
ENCODING 33
SWIDTH 228 0
DWIDTH 3 0
BBX 1 10 1 0
BITMAP
80
80
80
80
80
80
80
80
00
80
ENDCHAR

STARTCHAR quotedbl
ENCODING 34
SWIDTH 291 0
DWIDTH 4 0
BBX 3 4 1 6
BITMAP
A0
A0
A0
A0
ENDCHAR

STARTCHAR numbersign
ENCODING 35
SWIDTH 456 0
DWIDTH 6 0
BBX 6 10 0 0
BITMAP
28
28
28
FC
28
28
FC
50
50
50
ENDCHAR

STARTCHAR dollar
ENCODING 36
SWIDTH 456 0
DWIDTH 6 0
BBX 5 13 1 -2
BITMAP
20
70
A8
A0
A0
60
30
28
A8
A8
70
20
20
ENDCHAR

STARTCHAR percent
ENCODING 37
SWIDTH 729 0
DWIDTH 10 0
BBX 7 10 2 0
BITMAP
44
A8
A8
B0
50
24
2A
2A
4A
84
ENDCHAR

STARTCHAR ampersand
ENCODING 38
SWIDTH 547 0
DWIDTH 8 0
BBX 7 10 1 0
BITMAP
30
48
48
48
30
54
8C
88
8C
72
ENDCHAR

STARTCHAR quoteright
ENCODING 39
SWIDTH 182 0
DWIDTH 3 0
BBX 2 3 1 7
BITMAP
C0
40
80
ENDCHAR

STARTCHAR parenleft
ENCODING 40
SWIDTH 273 0
DWIDTH 4 0
BBX 3 13 1 -3
BITMAP
20
40
40
80
80
80
80
80
80
80
40
40
20
ENDCHAR

STARTCHAR parenright
ENCODING 41
SWIDTH 273 0
DWIDTH 4 0
BBX 3 13 1 -3
BITMAP
80
40
40
20
20
20
20
20
20
20
40
40
80
ENDCHAR

STARTCHAR asterisk
ENCODING 42
SWIDTH 319 0
DWIDTH 4 0
BBX 4 5 0 5
BITMAP
A0
F0
60
F0
90
ENDCHAR

STARTCHAR plus
ENCODING 43
SWIDTH 479 0
DWIDTH 7 0
BBX 7 7 0 1
BITMAP
10
10
10
FE
10
10
10
ENDCHAR

STARTCHAR comma
ENCODING 44
SWIDTH 228 0
DWIDTH 3 0
BBX 2 4 1 -3
BITMAP
C0
40
40
80
ENDCHAR

STARTCHAR minus
ENCODING 45
SWIDTH 479 0
DWIDTH 7 0
BBX 6 1 1 4
BITMAP
FC
ENDCHAR

STARTCHAR period
ENCODING 46
SWIDTH 228 0
DWIDTH 3 0
BBX 1 1 1 0
BITMAP
80
ENDCHAR

STARTCHAR slash
ENCODING 47
SWIDTH 228 0
DWIDTH 3 0
BBX 3 11 0 -1
BITMAP
20
20
20
20
40
40
40
80
80
80
80
ENDCHAR

STARTCHAR zero
ENCODING 48
SWIDTH 456 0
DWIDTH 6 0
BBX 5 10 1 0
BITMAP
70
88
88
88
88
88
88
88
88
70
ENDCHAR

STARTCHAR one
ENCODING 49
SWIDTH 456 0
DWIDTH 6 0
BBX 3 10 1 0
BITMAP
20
60
A0
20
20
20
20
20
20
20
ENDCHAR

STARTCHAR two
ENCODING 50
SWIDTH 456 0
DWIDTH 6 0
BBX 5 10 1 0
BITMAP
70
88
88
08
08
10
20
40
80
F8
ENDCHAR

STARTCHAR three
ENCODING 51
SWIDTH 456 0
DWIDTH 6 0
BBX 5 10 1 0
BITMAP
70
88
88
08
30
08
08
88
88
70
ENDCHAR

STARTCHAR four
ENCODING 52
SWIDTH 456 0
DWIDTH 6 0
BBX 6 10 0 0
BITMAP
08
18
18
28
48
48
FC
08
08
08
ENDCHAR

STARTCHAR five
ENCODING 53
SWIDTH 456 0
DWIDTH 6 0
BBX 5 10 1 0
BITMAP
78
40
80
F0
88
08
08
88
88
70
ENDCHAR

STARTCHAR six
ENCODING 54
SWIDTH 456 0
DWIDTH 6 0
BBX 5 10 1 0
BITMAP
70
88
88
80
B0
C8
88
88
88
70
ENDCHAR

STARTCHAR seven
ENCODING 55
SWIDTH 456 0
DWIDTH 6 0
BBX 5 10 1 0
BITMAP
F8
10
10
20
20
20
40
40
40
40
ENDCHAR

STARTCHAR eight
ENCODING 56
SWIDTH 456 0
DWIDTH 6 0
BBX 5 10 1 0
BITMAP
70
88
88
88
70
88
88
88
88
70
ENDCHAR

STARTCHAR nine
ENCODING 57
SWIDTH 456 0
DWIDTH 6 0
BBX 5 10 1 0
BITMAP
70
88
88
88
98
68
08
88
88
70
ENDCHAR

STARTCHAR colon
ENCODING 58
SWIDTH 228 0
DWIDTH 3 0
BBX 1 7 1 0
BITMAP
80
00
00
00
00
00
80
ENDCHAR

STARTCHAR semicolon
ENCODING 59
SWIDTH 228 0
DWIDTH 3 0
BBX 2 10 1 -3
BITMAP
80
00
00
00
00
00
C0
40
40
80
ENDCHAR

STARTCHAR less
ENCODING 60
SWIDTH 479 0
DWIDTH 7 0
BBX 6 5 1 2
BITMAP
0C
30
C0
30
0C
ENDCHAR

STARTCHAR equal
ENCODING 61
SWIDTH 479 0
DWIDTH 7 0
BBX 6 4 1 2
BITMAP
FC
00
00
FC
ENDCHAR

STARTCHAR greater
ENCODING 62
SWIDTH 479 0
DWIDTH 7 0
BBX 6 5 1 2
BITMAP
C0
30
0C
30
C0
ENDCHAR

STARTCHAR question
ENCODING 63
SWIDTH 456 0
DWIDTH 6 0
BBX 5 10 1 0
BITMAP
70
88
88
08
10
20
20
20
00
20
ENDCHAR

STARTCHAR at
ENCODING 64
SWIDTH 832 0
DWIDTH 12 0
BBX 10 13 1 -3
BITMAP
1E00
6180
4080
8D40
9240
A240
A240
A240
A680
9B00
4040
60C0
1F00
ENDCHAR

STARTCHAR A
ENCODING 65
SWIDTH 547 0
DWIDTH 7 0
BBX 7 10 0 0
BITMAP
10
10
28
28
28
44
7C
44
82
82
ENDCHAR

STARTCHAR B
ENCODING 66
SWIDTH 547 0
DWIDTH 8 0
BBX 6 10 1 0
BITMAP
F8
84
84
84
F8
84
84
84
84
F8
ENDCHAR

STARTCHAR C
ENCODING 67
SWIDTH 592 0
DWIDTH 8 0
BBX 7 10 1 0
BITMAP
38
44
82
80
80
80
80
82
44
38
ENDCHAR

STARTCHAR D
ENCODING 68
SWIDTH 592 0
DWIDTH 9 0
BBX 7 10 1 0
BITMAP
F8
84
82
82
82
82
82
82
84
F8
ENDCHAR

STARTCHAR E
ENCODING 69
SWIDTH 547 0
DWIDTH 8 0
BBX 6 10 1 0
BITMAP
FC
80
80
80
F8
80
80
80
80
FC
ENDCHAR

STARTCHAR F
ENCODING 70
SWIDTH 501 0
DWIDTH 7 0
BBX 6 10 1 0
BITMAP
FC
80
80
80
F8
80
80
80
80
80
ENDCHAR

STARTCHAR G
ENCODING 71
SWIDTH 638 0
DWIDTH 9 0
BBX 7 10 1 0
BITMAP
38
44
82
80
80
8E
82
82
42
3C
ENDCHAR

STARTCHAR H
ENCODING 72
SWIDTH 592 0
DWIDTH 8 0
BBX 6 10 1 0
BITMAP
84
84
84
84
FC
84
84
84
84
84
ENDCHAR

STARTCHAR I
ENCODING 73
SWIDTH 228 0
DWIDTH 3 0
BBX 1 10 1 0
BITMAP
80
80
80
80
80
80
80
80
80
80
ENDCHAR

STARTCHAR J
ENCODING 74
SWIDTH 410 0
DWIDTH 6 0
BBX 15 12 -10 -2
BITMAP
0002
0002
0002
0002
0002
0002
0002
0012
0012
000C
0000
8000
ENDCHAR

STARTCHAR K
ENCODING 75
SWIDTH 547 0
DWIDTH 8 0
BBX 7 10 1 0
BITMAP
82
84
88
90
A0
D0
88
88
84
82
ENDCHAR

STARTCHAR L
ENCODING 76
SWIDTH 456 0
DWIDTH 6 0
BBX 5 10 1 0
BITMAP
80
80
80
80
80
80
80
80
80
F8
ENDCHAR

STARTCHAR M
ENCODING 77
SWIDTH 683 0
DWIDTH 10 0
BBX 8 10 1 0
BITMAP
81
C3
C3
C3
A5
A5
A5
99
99
99
ENDCHAR

STARTCHAR N
ENCODING 78
SWIDTH 592 0
DWIDTH 8 0
BBX 6 10 1 0
BITMAP
84
C4
C4
A4
A4
94
94
8C
8C
84
ENDCHAR

STARTCHAR O
ENCODING 79
SWIDTH 638 0
DWIDTH 9 0
BBX 7 10 1 0
BITMAP
38
44
82
82
82
82
82
82
44
38
ENDCHAR

STARTCHAR P
ENCODING 80
SWIDTH 547 0
DWIDTH 8 0
BBX 6 10 1 0
BITMAP
F8
84
84
84
84
F8
80
80
80
80
ENDCHAR

STARTCHAR Q
ENCODING 81
SWIDTH 638 0
DWIDTH 9 0
BBX 7 11 1 -1
BITMAP
38
44
82
82
82
82
82
92
4C
3C
02
ENDCHAR

STARTCHAR R
ENCODING 82
SWIDTH 592 0
DWIDTH 8 0
BBX 7 10 1 0
BITMAP
F8
84
84
84
F8
90
88
84
84
82
ENDCHAR

STARTCHAR S
ENCODING 83
SWIDTH 547 0
DWIDTH 8 0
BBX 6 10 1 0
BITMAP
78
84
84
80
60
18
04
84
84
78
ENDCHAR

STARTCHAR T
ENCODING 84
SWIDTH 501 0
DWIDTH 7 0
BBX 7 10 0 0
BITMAP
FE
10
10
10
10
10
10
10
10
10
ENDCHAR

STARTCHAR U
ENCODING 85
SWIDTH 592 0
DWIDTH 8 0
BBX 6 10 1 0
BITMAP
84
84
84
84
84
84
84
84
84
78
ENDCHAR

STARTCHAR V
ENCODING 86
SWIDTH 547 0
DWIDTH 8 0
BBX 8 10 0 0
BITMAP
81
81
42
42
42
24
24
24
18
18
ENDCHAR

STARTCHAR W
ENCODING 87
SWIDTH 774 0
DWIDTH 11 0
BBX 11 10 0 0
BITMAP
8420
8420
4A40
4A40
4A40
5140
3180
3180
2080
2080
ENDCHAR

STARTCHAR X
ENCODING 88
SWIDTH 547 0
DWIDTH 8 0
BBX 8 10 0 0
BITMAP
81
42
24
24
18
18
24
24
42
81
ENDCHAR

STARTCHAR Y
ENCODING 89
SWIDTH 547 0
DWIDTH 7 0
BBX 7 10 0 0
BITMAP
82
82
44
28
28
10
10
10
10
10
ENDCHAR

STARTCHAR Z
ENCODING 90
SWIDTH 501 0
DWIDTH 8 0
BBX 6 10 1 0
BITMAP
FC
04
08
10
10
20
40
40
80
FC
ENDCHAR

STARTCHAR bracketleft
ENCODING 91
SWIDTH 228 0
DWIDTH 3 0
BBX 2 13 1 -3
BITMAP
C0
80
80
80
80
80
80
80
80
80
80
80
C0
ENDCHAR

STARTCHAR backslash
ENCODING 92
SWIDTH 228 0
DWIDTH 3 0
BBX 3 11 0 -1
BITMAP
80
80
80
80
40
40
40
20
20
20
20
ENDCHAR

STARTCHAR bracketright
ENCODING 93
SWIDTH 228 0
DWIDTH 3 0
BBX 2 13 1 -3
BITMAP
C0
40
40
40
40
40
40
40
40
40
40
40
C0
ENDCHAR

STARTCHAR asciicircum
ENCODING 94
SWIDTH 385 0
DWIDTH 5 0
BBX 5 6 0 4
BITMAP
20
20
50
50
88
88
ENDCHAR

STARTCHAR underscore
ENCODING 95
SWIDTH 456 0
DWIDTH 6 0
BBX 6 1 0 -2
BITMAP
FC
ENDCHAR

STARTCHAR quoteleft
ENCODING 96
SWIDTH 182 0
DWIDTH 3 0
BBX 2 3 1 7
BITMAP
40
80
C0
ENDCHAR

STARTCHAR a
ENCODING 97
SWIDTH 456 0
DWIDTH 6 0
BBX 5 7 1 0
BITMAP
70
88
08
78
88
98
68
ENDCHAR

STARTCHAR b
ENCODING 98
SWIDTH 456 0
DWIDTH 6 0
BBX 5 10 1 0
BITMAP
80
80
80
B0
C8
88
88
88
C8
B0
ENDCHAR

STARTCHAR c
ENCODING 99
SWIDTH 410 0
DWIDTH 6 0
BBX 5 7 1 0
BITMAP
70
88
80
80
80
88
70
ENDCHAR

STARTCHAR d
ENCODING 100
SWIDTH 456 0
DWIDTH 6 0
BBX 5 10 1 0
BITMAP
08
08
08
68
98
88
88
88
98
68
ENDCHAR

STARTCHAR e
ENCODING 101
SWIDTH 456 0
DWIDTH 6 0
BBX 5 7 1 0
BITMAP
70
88
88
F8
80
88
70
ENDCHAR

STARTCHAR f
ENCODING 102
SWIDTH 228 0
DWIDTH 3 0
BBX 4 10 0 0
BITMAP
30
40
40
E0
40
40
40
40
40
40
ENDCHAR

STARTCHAR g
ENCODING 103
SWIDTH 456 0
DWIDTH 6 0
BBX 5 10 1 -3
BITMAP
68
98
88
88
88
98
68
08
88
70
ENDCHAR

STARTCHAR h
ENCODING 104
SWIDTH 456 0
DWIDTH 6 0
BBX 5 10 1 0
BITMAP
80
80
80
B0
C8
88
88
88
88
88
ENDCHAR

STARTCHAR i
ENCODING 105
SWIDTH 182 0
DWIDTH 2 0
BBX 1 10 1 0
BITMAP
80
00
00
80
80
80
80
80
80
80
ENDCHAR

STARTCHAR j
ENCODING 106
SWIDTH 182 0
DWIDTH 2 0
BBX 2 13 0 -3
BITMAP
40
00
00
40
40
40
40
40
40
40
40
40
80
ENDCHAR

STARTCHAR k
ENCODING 107
SWIDTH 410 0
DWIDTH 6 0
BBX 5 10 1 0
BITMAP
80
80
80
88
90
A0
C0
A0
90
88
ENDCHAR

STARTCHAR l
ENCODING 108
SWIDTH 182 0
DWIDTH 2 0
BBX 1 10 1 0
BITMAP
80
80
80
80
80
80
80
80
80
80
ENDCHAR

STARTCHAR m
ENCODING 109
SWIDTH 683 0
DWIDTH 8 0
BBX 7 7 1 0
BITMAP
B4
DA
92
92
92
92
92
ENDCHAR

STARTCHAR n
ENCODING 110
SWIDTH 456 0
DWIDTH 6 0
BBX 5 7 1 0
BITMAP
B0
C8
88
88
88
88
88
ENDCHAR

STARTCHAR o
ENCODING 111
SWIDTH 456 0
DWIDTH 6 0
BBX 5 7 1 0
BITMAP
70
88
88
88
88
88
70
ENDCHAR

STARTCHAR p
ENCODING 112
SWIDTH 456 0
DWIDTH 6 0
BBX 5 10 1 -3
BITMAP
B0
C8
88
88
88
C8
B0
80
80
80
ENDCHAR

STARTCHAR q
ENCODING 113
SWIDTH 456 0
DWIDTH 6 0
BBX 5 10 1 -3
BITMAP
68
98
88
88
88
98
68
08
08
08
ENDCHAR

STARTCHAR r
ENCODING 114
SWIDTH 273 0
DWIDTH 4 0
BBX 3 7 1 0
BITMAP
A0
C0
80
80
80
80
80
ENDCHAR

STARTCHAR s
ENCODING 115
SWIDTH 410 0
DWIDTH 6 0
BBX 5 7 1 0
BITMAP
70
88
80
70
08
88
70
ENDCHAR

STARTCHAR t
ENCODING 116
SWIDTH 228 0
DWIDTH 3 0
BBX 3 10 0 0
BITMAP
40
40
40
E0
40
40
40
40
40
20
ENDCHAR

STARTCHAR u
ENCODING 117
SWIDTH 456 0
DWIDTH 6 0
BBX 5 7 1 0
BITMAP
88
88
88
88
88
98
68
ENDCHAR

STARTCHAR v
ENCODING 118
SWIDTH 410 0
DWIDTH 7 0
BBX 6 7 1 0
BITMAP
84
84
48
48
48
30
30
ENDCHAR

STARTCHAR w
ENCODING 119
SWIDTH 592 0
DWIDTH 8 0
BBX 9 7 0 0
BITMAP
8880
8880
5500
5500
5500
2200
2200
ENDCHAR

STARTCHAR x
ENCODING 120
SWIDTH 410 0
DWIDTH 7 0
BBX 6 7 1 0
BITMAP
84
48
30
30
30
48
84
ENDCHAR

STARTCHAR y
ENCODING 121
SWIDTH 410 0
DWIDTH 6 0
BBX 6 10 0 -3
BITMAP
84
84
48
48
30
10
10
20
20
40
ENDCHAR

STARTCHAR z
ENCODING 122
SWIDTH 410 0
DWIDTH 6 0
BBX 5 7 1 0
BITMAP
F8
08
10
20
40
80
F8
ENDCHAR

STARTCHAR braceleft
ENCODING 123
SWIDTH 274 0
DWIDTH 4 0
BBX 3 13 1 -3
BITMAP
20
40
40
40
40
40
80
40
40
40
40
40
20
ENDCHAR

STARTCHAR bar
ENCODING 124
SWIDTH 213 0
DWIDTH 3 0
BBX 1 14 1 -4
BITMAP
80
80
80
80
80
80
80
80
80
80
80
80
80
80
ENDCHAR

STARTCHAR braceright
ENCODING 125
SWIDTH 274 0
DWIDTH 4 0
BBX 3 13 1 -3
BITMAP
80
40
40
40
40
40
20
40
40
40
40
40
80
ENDCHAR

STARTCHAR asciitilde
ENCODING 126
SWIDTH 479 0
DWIDTH 7 0
BBX 5 2 1 4
BITMAP
E8
B8
ENDCHAR

STARTCHAR space
ENCODING 160
SWIDTH 228 0
DWIDTH 4 0
BBX 0 0 0 0
BITMAP
ENDCHAR

STARTCHAR exclamdown
ENCODING 161
SWIDTH 273 0
DWIDTH 4 0
BBX 1 10 2 -3
BITMAP
80
00
80
80
80
80
80
80
80
80
ENDCHAR

STARTCHAR cent
ENCODING 162
SWIDTH 456 0
DWIDTH 6 0
BBX 5 13 1 -3
BITMAP
10
10
10
70
D8
90
A0
A8
D8
70
40
40
40
ENDCHAR

STARTCHAR sterling
ENCODING 163
SWIDTH 456 0
DWIDTH 6 0
BBX 7 10 0 0
BITMAP
38
44
40
40
F8
20
20
20
72
CC
ENDCHAR

STARTCHAR currency
ENCODING 164
SWIDTH 456 0
DWIDTH 6 0
BBX 5 7 1 2
BITMAP
88
F8
50
88
50
F8
88
ENDCHAR

STARTCHAR yen
ENCODING 165
SWIDTH 456 0
DWIDTH 6 0
BBX 5 10 1 0
BITMAP
88
88
88
50
20
F8
20
F8
20
20
ENDCHAR

STARTCHAR brokenbar
ENCODING 166
SWIDTH 213 0
DWIDTH 3 0
BBX 1 14 1 -4
BITMAP
80
80
80
80
80
80
00
00
80
80
80
80
80
80
ENDCHAR

STARTCHAR section
ENCODING 167
SWIDTH 456 0
DWIDTH 6 0
BBX 5 13 1 -3
BITMAP
30
48
40
20
50
88
88
48
30
08
88
88
70
ENDCHAR

STARTCHAR dieresis
ENCODING 168
SWIDTH 273 0
DWIDTH 4 0
BBX 3 1 1 9
BITMAP
A0
ENDCHAR

STARTCHAR copyright
ENCODING 169
SWIDTH 604 0
DWIDTH 8 0
BBX 9 10 0 0
BITMAP
1C00
6300
5D00
A280
A080
A080
A280
5D00
6300
1C00
ENDCHAR

STARTCHAR ordfeminine
ENCODING 170
SWIDTH 303 0
DWIDTH 4 0
BBX 4 5 0 5
BITMAP
60
90
70
B0
D0
ENDCHAR

STARTCHAR guillemotleft
ENCODING 171
SWIDTH 456 0
DWIDTH 6 0
BBX 4 7 1 0
BITMAP
50
50
A0
A0
A0
50
50
ENDCHAR

STARTCHAR logicalnot
ENCODING 172
SWIDTH 479 0
DWIDTH 7 0
BBX 5 4 1 3
BITMAP
F8
08
08
08
ENDCHAR

STARTCHAR hyphen
ENCODING 173
SWIDTH 273 0
DWIDTH 4 0
BBX 3 1 1 7
BITMAP
E0
ENDCHAR

STARTCHAR registered
ENCODING 174
SWIDTH 604 0
DWIDTH 8 0
BBX 9 10 0 0
BITMAP
1C00
6300
5D00
9280
9C80
9480
9280
5300
6300
1C00
ENDCHAR

STARTCHAR macron
ENCODING 175
SWIDTH 273 0
DWIDTH 4 0
BBX 4 1 0 8
BITMAP
F0
ENDCHAR

STARTCHAR degree
ENCODING 176
SWIDTH 328 0
DWIDTH 5 0
BBX 3 4 1 6
BITMAP
40
A0
A0
40
ENDCHAR

STARTCHAR plusminus
ENCODING 177
SWIDTH 479 0
DWIDTH 7 0
BBX 5 9 1 1
BITMAP
20
20
20
F8
20
20
20
00
F8
ENDCHAR

STARTCHAR twosuperior
ENCODING 178
SWIDTH 273 0
DWIDTH 4 0
BBX 4 5 0 5
BITMAP
60
90
20
40
F0
ENDCHAR

STARTCHAR threesuperior
ENCODING 179
SWIDTH 273 0
DWIDTH 4 0
BBX 3 5 1 5
BITMAP
E0
20
40
20
C0
ENDCHAR

STARTCHAR acute
ENCODING 180
SWIDTH 273 0
DWIDTH 4 0
BBX 2 2 1 8
BITMAP
40
80
ENDCHAR

STARTCHAR mu
ENCODING 181
SWIDTH 456 0
DWIDTH 6 0
BBX 5 10 1 -3
BITMAP
88
88
88
88
88
C8
B0
80
80
80
ENDCHAR

STARTCHAR paragraph
ENCODING 182
SWIDTH 440 0
DWIDTH 6 0
BBX 6 13 0 -3
BITMAP
7C
E8
E8
E8
E8
68
28
28
28
28
28
28
28
ENDCHAR

STARTCHAR periodcentered
ENCODING 183
SWIDTH 228 0
DWIDTH 3 0
BBX 1 1 1 4
BITMAP
80
ENDCHAR

STARTCHAR cedilla
ENCODING 184
SWIDTH 273 0
DWIDTH 4 0
BBX 3 3 1 -3
BITMAP
C0
60
C0
ENDCHAR

STARTCHAR onesuperior
ENCODING 185
SWIDTH 273 0
DWIDTH 4 0
BBX 2 5 1 5
BITMAP
40
C0
40
40
40
ENDCHAR

STARTCHAR ordmasculine
ENCODING 186
SWIDTH 299 0
DWIDTH 4 0
BBX 4 5 0 5
BITMAP
60
90
90
90
60
ENDCHAR

STARTCHAR guillemotright
ENCODING 187
SWIDTH 456 0
DWIDTH 6 0
BBX 4 7 1 0
BITMAP
A0
A0
50
50
50
A0
A0
ENDCHAR

STARTCHAR onequarter
ENCODING 188
SWIDTH 684 0
DWIDTH 10 0
BBX 9 11 1 -1
BITMAP
4100
C200
4200
4400
4800
0800
1100
1300
2500
4780
4100
ENDCHAR

STARTCHAR onehalf
ENCODING 189
SWIDTH 684 0
DWIDTH 10 0
BBX 9 11 1 -1
BITMAP
4100
C200
4200
4400
4800
0800
1300
1480
2100
4200
4780
ENDCHAR

STARTCHAR threequarters
ENCODING 190
SWIDTH 684 0
DWIDTH 10 0
BBX 9 11 1 -1
BITMAP
E100
2200
4200
2400
C800
0800
1100
1300
2500
4780
4100
ENDCHAR

STARTCHAR questiondown
ENCODING 191
SWIDTH 501 0
DWIDTH 7 0
BBX 5 10 1 -3
BITMAP
20
00
20
20
20
40
80
88
88
70
ENDCHAR

STARTCHAR Agrave
ENCODING 192
SWIDTH 547 0
DWIDTH 7 0
BBX 7 13 0 0
BITMAP
20
10
00
10
10
28
28
28
44
7C
44
82
82
ENDCHAR

STARTCHAR Aacute
ENCODING 193
SWIDTH 547 0
DWIDTH 7 0
BBX 7 13 0 0
BITMAP
08
10
00
10
10
28
28
28
44
7C
44
82
82
ENDCHAR

STARTCHAR Acircumflex
ENCODING 194
SWIDTH 547 0
DWIDTH 7 0
BBX 7 13 0 0
BITMAP
30
48
00
10
10
28
28
28
44
7C
44
82
82
ENDCHAR

STARTCHAR Atilde
ENCODING 195
SWIDTH 547 0
DWIDTH 7 0
BBX 7 13 0 0
BITMAP
14
28
00
10
10
28
28
28
44
7C
44
82
82
ENDCHAR

STARTCHAR Adieresis
ENCODING 196
SWIDTH 547 0
DWIDTH 7 0
BBX 7 12 0 0
BITMAP
28
00
10
10
28
28
28
44
7C
44
82
82
ENDCHAR

STARTCHAR Aring
ENCODING 197
SWIDTH 547 0
DWIDTH 7 0
BBX 7 13 0 0
BITMAP
10
28
10
10
10
28
28
28
44
7C
44
82
82
ENDCHAR

STARTCHAR AE
ENCODING 198
SWIDTH 820 0
DWIDTH 11 0
BBX 10 10 0 0
BITMAP
1FC0
1400
2400
2400
27C0
4400
7C00
4400
8400
87C0
ENDCHAR

STARTCHAR Ccedilla
ENCODING 199
SWIDTH 592 0
DWIDTH 8 0
BBX 7 13 1 -3
BITMAP
38
44
82
80
80
80
80
82
44
38
10
08
30
ENDCHAR

STARTCHAR Egrave
ENCODING 200
SWIDTH 547 0
DWIDTH 8 0
BBX 6 13 1 0
BITMAP
20
10
00
FC
80
80
80
F8
80
80
80
80
FC
ENDCHAR

STARTCHAR Eacute
ENCODING 201
SWIDTH 547 0
DWIDTH 8 0
BBX 6 13 1 0
BITMAP
10
20
00
FC
80
80
80
F8
80
80
80
80
FC
ENDCHAR

STARTCHAR Ecircumflex
ENCODING 202
SWIDTH 547 0
DWIDTH 8 0
BBX 6 13 1 0
BITMAP
30
48
00
FC
80
80
80
F8
80
80
80
80
FC
ENDCHAR

STARTCHAR Edieresis
ENCODING 203
SWIDTH 547 0
DWIDTH 8 0
BBX 6 12 1 0
BITMAP
28
00
FC
80
80
80
F8
80
80
80
80
FC
ENDCHAR

STARTCHAR Igrave
ENCODING 204
SWIDTH 228 0
DWIDTH 3 0
BBX 2 13 0 0
BITMAP
80
40
00
40
40
40
40
40
40
40
40
40
40
ENDCHAR

STARTCHAR Iacute
ENCODING 205
SWIDTH 228 0
DWIDTH 3 0
BBX 2 13 1 0
BITMAP
40
80
00
80
80
80
80
80
80
80
80
80
80
ENDCHAR

STARTCHAR Icircumflex
ENCODING 206
SWIDTH 228 0
DWIDTH 3 0
BBX 4 13 0 0
BITMAP
60
90
00
40
40
40
40
40
40
40
40
40
40
ENDCHAR

STARTCHAR Idieresis
ENCODING 207
SWIDTH 228 0
DWIDTH 3 0
BBX 3 12 0 0
BITMAP
A0
00
40
40
40
40
40
40
40
40
40
40
ENDCHAR

STARTCHAR Gbreve
ENCODING 208
SWIDTH 638 0
DWIDTH 9 0
BBX 7 13 1 0
BITMAP
24
18
00
38
44
82
80
80
8E
82
82
42
3C
ENDCHAR

STARTCHAR Ntilde
ENCODING 209
SWIDTH 592 0
DWIDTH 8 0
BBX 6 13 1 0
BITMAP
28
50
00
84
C4
C4
A4
A4
94
94
8C
8C
84
ENDCHAR

STARTCHAR Ograve
ENCODING 210
SWIDTH 638 0
DWIDTH 9 0
BBX 7 13 1 0
BITMAP
20
10
00
38
44
82
82
82
82
82
82
44
38
ENDCHAR

STARTCHAR Oacute
ENCODING 211
SWIDTH 638 0
DWIDTH 9 0
BBX 7 13 1 0
BITMAP
08
10
00
38
44
82
82
82
82
82
82
44
38
ENDCHAR

STARTCHAR Ocircumflex
ENCODING 212
SWIDTH 638 0
DWIDTH 9 0
BBX 7 13 1 0
BITMAP
18
24
00
38
44
82
82
82
82
82
82
44
38
ENDCHAR

STARTCHAR Otilde
ENCODING 213
SWIDTH 638 0
DWIDTH 9 0
BBX 7 13 1 0
BITMAP
14
28
00
38
44
82
82
82
82
82
82
44
38
ENDCHAR

STARTCHAR Odieresis
ENCODING 214
SWIDTH 638 0
DWIDTH 9 0
BBX 7 12 1 0
BITMAP
28
00
38
44
82
82
82
82
82
82
44
38
ENDCHAR

STARTCHAR multiply
ENCODING 215
SWIDTH 479 0
DWIDTH 7 0
BBX 5 6 1 2
BITMAP
88
50
20
20
50
88
ENDCHAR

STARTCHAR Oslash
ENCODING 216
SWIDTH 638 0
DWIDTH 9 0
BBX 7 10 1 0
BITMAP
3A
44
8A
8A
92
92
A2
A2
44
B8
ENDCHAR

STARTCHAR Ugrave
ENCODING 217
SWIDTH 592 0
DWIDTH 8 0
BBX 6 13 1 0
BITMAP
20
10
00
84
84
84
84
84
84
84
84
84
78
ENDCHAR

STARTCHAR Uacute
ENCODING 218
SWIDTH 592 0
DWIDTH 8 0
BBX 6 13 1 0
BITMAP
10
20
00
84
84
84
84
84
84
84
84
84
78
ENDCHAR

STARTCHAR Ucircumflex
ENCODING 219
SWIDTH 592 0
DWIDTH 8 0
BBX 6 13 1 0
BITMAP
30
48
00
84
84
84
84
84
84
84
84
84
78
ENDCHAR

STARTCHAR Udieresis
ENCODING 220
SWIDTH 592 0
DWIDTH 8 0
BBX 6 12 1 0
BITMAP
48
00
84
84
84
84
84
84
84
84
84
78
ENDCHAR

STARTCHAR Idotaccent
ENCODING 221
SWIDTH 228 0
DWIDTH 3 0
BBX 1 12 1 0
BITMAP
80
00
80
80
80
80
80
80
80
80
80
80
ENDCHAR

STARTCHAR Scedilla
ENCODING 222
SWIDTH 547 0
DWIDTH 8 0
BBX 6 13 1 -3
BITMAP
78
84
84
80
60
18
04
84
84
78
10
08
30
ENDCHAR

STARTCHAR germandbls
ENCODING 223
SWIDTH 501 0
DWIDTH 7 0
BBX 6 10 1 0
BITMAP
70
88
88
88
90
88
84
84
A4
98
ENDCHAR

STARTCHAR agrave
ENCODING 224
SWIDTH 456 0
DWIDTH 6 0
BBX 5 10 1 0
BITMAP
40
20
00
70
88
08
78
88
98
68
ENDCHAR

STARTCHAR aacute
ENCODING 225
SWIDTH 456 0
DWIDTH 6 0
BBX 5 10 1 0
BITMAP
10
20
00
70
88
08
78
88
98
68
ENDCHAR

STARTCHAR acircumflex
ENCODING 226
SWIDTH 456 0
DWIDTH 6 0
BBX 5 10 1 0
BITMAP
30
48
00
70
88
08
78
88
98
68
ENDCHAR

STARTCHAR atilde
ENCODING 227
SWIDTH 456 0
DWIDTH 6 0
BBX 5 10 1 0
BITMAP
28
50
00
70
88
08
78
88
98
68
ENDCHAR

STARTCHAR adieresis
ENCODING 228
SWIDTH 456 0
DWIDTH 6 0
BBX 5 9 1 0
BITMAP
50
00
70
88
08
78
88
98
68
ENDCHAR

STARTCHAR aring
ENCODING 229
SWIDTH 456 0
DWIDTH 6 0
BBX 5 11 1 0
BITMAP
20
50
20
00
70
88
08
78
88
98
68
ENDCHAR

STARTCHAR ae
ENCODING 230
SWIDTH 729 0
DWIDTH 10 0
BBX 9 7 1 0
BITMAP
7700
8880
0880
7F80
8800
9880
6700
ENDCHAR

STARTCHAR ccedilla
ENCODING 231
SWIDTH 410 0
DWIDTH 6 0
BBX 5 10 1 -3
BITMAP
70
88
80
80
80
88
70
20
10
60
ENDCHAR

STARTCHAR egrave
ENCODING 232
SWIDTH 456 0
DWIDTH 6 0
BBX 5 10 1 0
BITMAP
40
20
00
70
88
88
F8
80
88
70
ENDCHAR

STARTCHAR eacute
ENCODING 233
SWIDTH 456 0
DWIDTH 6 0
BBX 5 10 1 0
BITMAP
10
20
00
70
88
88
F8
80
88
70
ENDCHAR

STARTCHAR ecircumflex
ENCODING 234
SWIDTH 456 0
DWIDTH 6 0
BBX 5 10 1 0
BITMAP
30
48
00
70
88
88
F8
80
88
70
ENDCHAR

STARTCHAR edieresis
ENCODING 235
SWIDTH 456 0
DWIDTH 6 0
BBX 5 9 1 0
BITMAP
50
00
70
88
88
F8
80
88
70
ENDCHAR

STARTCHAR igrave
ENCODING 236
SWIDTH 228 0
DWIDTH 2 0
BBX 2 10 0 0
BITMAP
80
40
00
40
40
40
40
40
40
40
ENDCHAR

STARTCHAR iacute
ENCODING 237
SWIDTH 228 0
DWIDTH 2 0
BBX 2 10 1 0
BITMAP
40
80
00
80
80
80
80
80
80
80
ENDCHAR

STARTCHAR icircumflex
ENCODING 238
SWIDTH 228 0
DWIDTH 2 0
BBX 4 10 0 0
BITMAP
60
90
00
40
40
40
40
40
40
40
ENDCHAR

STARTCHAR idieresis
ENCODING 239
SWIDTH 228 0
DWIDTH 2 0
BBX 3 9 0 0
BITMAP
A0
00
40
40
40
40
40
40
40
ENDCHAR

STARTCHAR gbreve
ENCODING 240
SWIDTH 456 0
DWIDTH 6 0
BBX 5 13 1 -3
BITMAP
48
30
00
68
98
88
88
88
98
68
08
88
70
ENDCHAR

STARTCHAR ntilde
ENCODING 241
SWIDTH 456 0
DWIDTH 6 0
BBX 5 10 1 0
BITMAP
28
50
00
B0
C8
88
88
88
88
88
ENDCHAR

STARTCHAR ograve
ENCODING 242
SWIDTH 456 0
DWIDTH 6 0
BBX 5 10 1 0
BITMAP
40
20
00
70
88
88
88
88
88
70
ENDCHAR

STARTCHAR oacute
ENCODING 243
SWIDTH 456 0
DWIDTH 6 0
BBX 5 10 1 0
BITMAP
10
20
00
70
88
88
88
88
88
70
ENDCHAR

STARTCHAR ocircumflex
ENCODING 244
SWIDTH 456 0
DWIDTH 6 0
BBX 5 10 1 0
BITMAP
60
90
00
70
88
88
88
88
88
70
ENDCHAR

STARTCHAR otilde
ENCODING 245
SWIDTH 456 0
DWIDTH 6 0
BBX 5 10 1 0
BITMAP
28
50
00
70
88
88
88
88
88
70
ENDCHAR

STARTCHAR odieresis
ENCODING 246
SWIDTH 456 0
DWIDTH 6 0
BBX 5 9 1 0
BITMAP
50
00
70
88
88
88
88
88
70
ENDCHAR

STARTCHAR divide
ENCODING 247
SWIDTH 479 0
DWIDTH 7 0
BBX 5 5 1 2
BITMAP
20
00
F8
00
20
ENDCHAR

STARTCHAR oslash
ENCODING 248
SWIDTH 501 0
DWIDTH 6 0
BBX 5 7 1 0
BITMAP
78
98
A8
A8
C8
C8
F0
ENDCHAR

STARTCHAR ugrave
ENCODING 249
SWIDTH 456 0
DWIDTH 6 0
BBX 5 10 1 0
BITMAP
40
20
00
88
88
88
88
88
98
68
ENDCHAR

STARTCHAR uacute
ENCODING 250
SWIDTH 456 0
DWIDTH 6 0
BBX 5 10 1 0
BITMAP
10
20
00
88
88
88
88
88
98
68
ENDCHAR

STARTCHAR ucircumflex
ENCODING 251
SWIDTH 456 0
DWIDTH 6 0
BBX 5 10 1 0
BITMAP
30
48
00
88
88
88
88
88
98
68
ENDCHAR

STARTCHAR udieresis
ENCODING 252
SWIDTH 456 0
DWIDTH 6 0
BBX 5 9 1 0
BITMAP
50
00
88
88
88
88
88
98
68
ENDCHAR

STARTCHAR dotlessi
ENCODING 253
SWIDTH 228 0
DWIDTH 2 0
BBX 1 7 1 0
BITMAP
80
80
80
80
80
80
80
ENDCHAR

STARTCHAR scedilla
ENCODING 254
SWIDTH 410 0
DWIDTH 6 0
BBX 5 10 1 -3
BITMAP
70
88
80
70
08
88
70
20
10
60
ENDCHAR

STARTCHAR ydieresis
ENCODING 255
SWIDTH 410 0
DWIDTH 6 0
BBX 6 12 0 -3
BITMAP
28
00
84
84
48
48
30
10
10
20
20
40
ENDCHAR
ENDFONT
